<svg width="41" height="23" viewBox="0 0 41 23" fill="none" xmlns="http://www.w3.org/2000/svg">
<path d="M39.5 12.5459C40.3284 12.5459 41 11.8743 41 11.0459C41 10.2175 40.3284 9.5459 39.5 9.5459L39.5 12.5459ZM0.439339 9.98523C-0.146446 10.571 -0.146446 11.5208 0.439339 12.1066L9.98528 21.6525C10.5711 22.2383 11.5208 22.2383 12.1066 21.6525C12.6924 21.0667 12.6924 20.117 12.1066 19.5312L3.62132 11.0459L12.1066 2.56062C12.6924 1.97483 12.6924 1.02508 12.1066 0.439294C11.5208 -0.146493 10.5711 -0.146493 9.98528 0.439294L0.439339 9.98523ZM39.5 9.5459L1.5 9.5459L1.5 12.5459L39.5 12.5459L39.5 9.5459Z" fill="white"/>
</svg>
