<svg width="130" height="162" viewBox="0 0 130 162" fill="none" xmlns="http://www.w3.org/2000/svg">
<path d="M40.302 11.0678C52.3985 11.0678 61.5198 24.969 52.4222 25.04C36.2955 25.1524 48.392 13.079 40.302 11.0678Z" fill="#E637B7"/>
<path d="M56.6125 9.05653C72.6148 9.05653 77.8304 22.9578 68.7387 23.0229C52.5823 23.1412 64.6789 11.0678 56.6125 9.05653Z" fill="#E637B7"/>
<path d="M28.2292 13.079C28.2292 13.079 36.2955 17.1074 30.2265 25.1524C24.1575 33.1974 28.2114 33.2033 32.2416 33.2033C36.2718 33.2033 40.302 13.079 28.2292 13.079Z" fill="#E637B7"/>
<path d="M64.5486 49.1336H24.2466V109.506C24.2466 129.583 60.3999 129.619 64.5486 129.619C68.6974 129.619 104.851 129.572 104.851 109.506V49.1336H64.5486Z" fill="white"/>
<path d="M104.845 41.2542C104.477 21.3606 88.718 5.02812 56.4586 9.05653C60.4888 9.05653 72.5853 13.079 72.5853 21.1299C70.5702 13.079 52.4343 9.05653 40.3259 11.0737C42.341 11.0737 48.3923 13.0849 48.3923 21.1299C42.341 13.079 40.3022 13.079 28.2294 13.079C36.2957 15.0903 36.2957 25.1524 32.2596 29.1808C30.2445 31.1921 28.2294 25.1524 30.2445 19.1246C24.1933 25.1524 20.1512 33.2033 24.1933 41.2542C20.1631 45.2767 18.1479 61.3667 18.1479 61.3667V77.4922H28.2235C28.2235 77.4922 28.2235 57.3797 32.2537 53.3454C36.2839 49.311 48.3863 53.3454 64.5131 53.3454C80.6398 53.3454 92.7423 49.3229 96.7725 53.3454C100.803 57.3679 100.815 77.4922 100.815 77.4922H110.89V61.3785C110.89 61.3785 108.881 45.2767 104.845 41.2542Z" fill="#FF64C4"/>
<path d="M112.911 113.748L105.206 113.701C105.39 111.973 105.283 110.589 104.827 109.678C104.827 113.701 96.7605 121.751 84.6758 121.751C76.6094 121.751 68.549 93.5762 64.5248 93.5762C60.5005 93.5762 52.4282 121.751 44.3737 121.751C32.2772 121.751 24.2227 113.701 24.2227 109.678C23.7664 110.589 23.63 111.973 23.8493 113.701L16.1445 113.748V119.74H25.1947C30.1021 135.457 46.2762 162 56.4584 162H72.5852C82.7614 162 98.9356 135.457 103.849 119.74H112.911V113.748Z" fill="black"/>
<path d="M38.3105 119.74L42.3408 115.712C52.4163 125.768 52.4163 125.768 52.4163 129.802C52.4163 133.837 52.3333 145.869 52.3629 149.915C52.4222 157.942 44.3559 157.942 40.3019 157.942C38.8795 157.942 38.8795 153.943 40.3019 153.943C44.3084 153.943 48.3446 153.943 48.3505 149.921C48.3505 141.87 48.3505 137.889 48.3505 133.848C48.3505 129.808 48.392 129.802 38.3105 119.74Z" fill="#149EF2"/>
<path d="M36.2956 161.97C40.3258 161.97 44.356 162 44.3323 153.92C44.3323 149.909 44.3323 149.921 44.3323 145.898C44.3323 137.847 44.3323 137.847 32.2357 125.786C16.109 109.69 12.1736 109.589 8.04263 113.712C3.91167 117.835 4.01242 117.735 4.01242 129.814C4.01242 141.893 24.1931 161.97 36.2956 161.97Z" fill="#FF64C4"/>
<path d="M36.2958 162C40.326 162 40.326 157.948 40.326 153.937V145.898C40.3023 137.83 40.3023 137.83 32.2596 129.802C20.1512 117.717 12.1975 109.577 8.06656 113.701C3.9356 117.824 4.03635 117.723 4.03635 129.802C4.03635 141.882 24.1933 162 36.2958 162Z" fill="black"/>
<path d="M28.2292 159.983C36.6037 159.983 36.2896 157.972 36.2896 153.949V149.921C36.2896 141.876 36.2896 137.847 32.2594 133.825C20.151 121.751 12.1973 113.576 8.06634 117.717C0 125.774 0 125.774 0 129.802C0 133.831 0 135.984 0 137.83C0 143.402 2.13364 146.212 8.06041 149.903C24.1931 159.983 24.1931 159.983 28.2292 159.983Z" fill="#FF64C4"/>
<path d="M35.1043 110.861L32.7336 113.227C32.419 113.541 32.242 113.967 32.2417 114.41V115.73L33.2492 114.724L34.2568 115.73L36.2778 117.741L40.308 113.718L37.4632 110.879C37.1515 110.567 36.729 110.389 36.2874 110.386C35.8458 110.383 35.4207 110.554 35.1043 110.861Z" fill="#149EF2"/>
<path d="M33.119 114.558L34.2747 115.741L32.2596 117.753V114.943C32.2537 114.841 32.2789 114.74 32.3319 114.653C32.385 114.565 32.4633 114.496 32.5565 114.455C32.6497 114.413 32.7534 114.401 32.8539 114.419C32.9544 114.438 33.0468 114.486 33.119 114.558Z" fill="#000672"/>
<path d="M40.7323 113.289L35.8751 118.137C35.5465 118.465 35.5465 118.997 35.8751 119.325L38.7165 122.161C39.0452 122.489 39.5781 122.489 39.9067 122.161L44.764 117.313C45.0926 116.985 45.0926 116.453 44.7639 116.125L41.9225 113.289C41.5939 112.961 41.061 112.961 40.7323 113.289Z" fill="black"/>
<path d="M41.3314 114.707L37.2998 118.731L39.3156 120.743L43.3472 116.719L41.3314 114.707Z" fill="#149EF2"/>
<path d="M26.2141 159.983C28.2292 159.983 28.2292 159.983 28.2292 149.927C28.2292 141.882 28.2292 141.882 16.1327 129.814C6.05716 119.758 0 123.774 0 129.814C0 133.837 0 135.996 0 137.859C0 143.431 2.13364 146.241 8.06041 149.933C24.1931 159.983 24.1931 159.983 26.2141 159.983Z" fill="#149EF2"/>
<path d="M48.3921 127.785C49.505 127.785 50.4072 126.885 50.4072 125.774C50.4072 124.663 49.505 123.763 48.3921 123.763C47.2791 123.763 46.377 124.663 46.377 125.774C46.377 126.885 47.2791 127.785 48.3921 127.785Z" fill="white"/>
<path d="M48.3922 126.981C49.0599 126.981 49.6012 126.44 49.6012 125.774C49.6012 125.107 49.0599 124.567 48.3922 124.567C47.7244 124.567 47.1831 125.107 47.1831 125.774C47.1831 126.44 47.7244 126.981 48.3922 126.981Z" fill="black"/>
<path d="M10.0756 93.5762V73.4637C10.0756 73.4637 2.00928 73.4637 2.00928 83.52C2.00928 93.5762 10.0756 93.5762 10.0756 93.5762Z" fill="#149EF2"/>
<path d="M8.06641 69.4294C8.06641 67.4182 14.1117 65.4128 14.1117 67.4182V99.6159C14.1117 101.615 8.06641 99.6159 8.06641 97.5987V69.4294Z" fill="#FF64C4"/>
<path d="M79.306 0H49.7373C40.5605 0.00939579 31.7622 3.65208 25.2731 10.1287C18.7841 16.6053 15.1344 25.3868 15.125 34.5461V65.401H17.1401V34.5461C17.1495 25.9202 20.5869 17.6503 26.698 11.5509C32.8091 5.45143 41.0949 2.02064 49.7373 2.01125H79.306C87.9484 2.02064 96.2342 5.45143 102.345 11.5509C108.456 17.6503 111.894 25.9202 111.903 34.5461V65.401H113.918V34.5461C113.907 25.3873 110.257 16.6067 103.769 10.1304C97.2798 3.65415 88.4824 0.0109584 79.306 0V0Z" fill="white"/>
<path d="M118.962 93.5762V73.4637C118.962 73.4637 127.023 73.4637 127.023 83.52C127.023 93.5762 118.962 93.5762 118.962 93.5762Z" fill="#149EF2"/>
<path d="M120.977 69.4294C120.977 67.4182 114.926 65.4128 114.926 67.4182V99.6159C114.926 101.615 120.977 99.6159 120.977 97.5987V69.4294Z" fill="#FF64C4"/>
<path d="M24.1931 149.921C24.1931 141.876 24.1931 141.876 16.1327 133.825C8.07226 125.774 4.03613 125.774 4.03613 133.825C4.03613 141.876 4.03613 141.876 12.0965 147.909C20.1569 153.943 24.1931 157.972 24.1931 149.921Z" fill="black"/>
<path d="M90.7327 119.74L86.6966 115.712C76.6211 125.768 76.6211 125.768 76.6211 129.802C76.6211 133.837 76.71 145.869 76.6804 149.915C76.6152 157.942 84.6815 157.942 88.7176 157.942C90.1341 157.942 90.1341 153.943 88.7176 153.943C84.7111 153.943 80.6691 153.943 80.6632 149.921C80.6632 141.87 80.6632 137.889 80.6632 133.848C80.6632 129.808 80.6513 129.802 90.7327 119.74Z" fill="#149EF2"/>
<path d="M92.748 161.97C88.7178 161.97 84.6816 162 84.7113 153.92C84.7113 149.909 84.6816 149.921 84.6816 145.898C84.6816 137.847 84.6816 137.847 96.7782 125.786C112.911 109.69 116.846 109.589 120.977 113.712C125.108 117.835 125.007 117.735 125.007 129.814C125.007 141.893 104.845 161.97 92.748 161.97Z" fill="#FF64C4"/>
<path d="M92.748 162C88.7178 162 88.7178 157.948 88.7178 153.937V145.898C88.7178 137.847 88.7178 137.847 96.7782 129.802C108.881 117.723 116.846 109.577 120.977 113.701C125.108 117.824 125.007 117.723 125.007 129.802C125.007 141.882 104.845 162 92.748 162Z" fill="black"/>
<path d="M100.814 159.983C92.4398 159.983 92.748 157.972 92.748 153.949V149.921C92.748 141.876 92.748 137.847 96.7842 133.825C108.881 121.751 116.846 113.576 120.977 117.717C129.044 125.768 129.044 125.768 129.044 129.796C129.044 133.825 129.044 135.978 129.044 137.841C129.044 143.414 126.904 146.224 120.983 149.915C104.845 159.983 104.845 159.983 100.814 159.983Z" fill="#FF64C4"/>
<path d="M93.9395 110.861L96.3102 113.227C96.467 113.382 96.5914 113.566 96.6758 113.769C96.7603 113.972 96.8032 114.19 96.8021 114.41V115.73L95.7946 114.724L94.787 115.73L92.7719 117.741L88.7417 113.718L91.5866 110.879C91.898 110.568 92.3192 110.392 92.7594 110.389C93.1996 110.386 93.6234 110.555 93.9395 110.861Z" fill="#149EF2"/>
<path d="M95.919 114.558L94.7336 115.741L96.7488 117.753V114.943C96.749 114.847 96.7216 114.753 96.6699 114.672C96.6183 114.591 96.5444 114.526 96.4571 114.486C96.3698 114.445 96.2728 114.43 96.1774 114.443C96.082 114.456 95.9924 114.496 95.919 114.558Z" fill="#000672"/>
<path d="M87.1159 113.286L84.2745 116.122C83.9459 116.45 83.9459 116.982 84.2745 117.31L89.1318 122.158C89.4604 122.486 89.9933 122.486 90.322 122.158L93.1634 119.322C93.492 118.994 93.492 118.462 93.1634 118.134L88.3062 113.286C87.9775 112.958 87.4446 112.958 87.1159 113.286Z" fill="black"/>
<path d="M87.7067 114.704L85.6909 116.716L89.7225 120.74L91.7383 118.728L87.7067 114.704Z" fill="#149EF2"/>
<path d="M102.829 159.983C100.814 159.983 100.814 159.983 100.814 149.927C100.814 141.882 100.814 141.882 112.911 129.814C122.986 119.758 129.043 123.774 129.043 129.814C129.043 133.837 129.043 135.996 129.043 137.859C129.043 143.431 126.904 146.241 120.983 149.933C104.844 159.983 104.844 159.983 102.829 159.983Z" fill="#149EF2"/>
<path d="M80.6516 127.785C81.7645 127.785 82.6667 126.885 82.6667 125.774C82.6667 124.663 81.7645 123.763 80.6516 123.763C79.5387 123.763 78.6365 124.663 78.6365 125.774C78.6365 126.885 79.5387 127.785 80.6516 127.785Z" fill="white"/>
<path d="M80.6514 126.981C81.3192 126.981 81.8605 126.44 81.8605 125.774C81.8605 125.107 81.3192 124.567 80.6514 124.567C79.9837 124.567 79.4424 125.107 79.4424 125.774C79.4424 126.44 79.9837 126.981 80.6514 126.981Z" fill="black"/>
<path d="M104.845 149.921C104.845 141.876 104.845 141.876 112.911 133.825C120.977 125.774 125.008 125.774 125.008 133.825C125.008 141.876 125.008 141.876 116.941 147.909C108.875 153.943 104.845 157.972 104.845 149.921Z" fill="black"/>
<path d="M54.4376 145.898H74.5886V123.633C74.585 118.424 73.3675 113.289 71.0325 108.631L67.0023 100.562C66.8623 100.284 66.6472 100.05 66.3812 99.8871C66.1153 99.7241 65.809 99.6383 65.4969 99.6395H63.5411C63.2299 99.6387 62.9246 99.7247 62.6597 99.8877C62.3947 100.051 62.1807 100.284 62.0416 100.562L57.9877 108.655C55.6502 113.311 54.4326 118.448 54.4316 123.656L54.4376 145.898Z" fill="#FF64C4"/>
<path d="M68.5548 155.96H60.4885C56.4583 155.96 54.4412 153.947 54.4373 149.921V141.846C54.4373 137.847 56.4583 135.836 60.4589 135.836H68.5548C72.585 135.836 74.6001 137.847 74.6001 141.846V149.95C74.6001 153.949 72.585 155.96 68.5548 155.96Z" fill="#149EF2"/>
<path d="M64.5187 153.949C68.9736 153.949 72.5851 150.345 72.5851 145.898C72.5851 141.452 68.9736 137.847 64.5187 137.847C60.0638 137.847 56.4524 141.452 56.4524 145.898C56.4524 150.345 60.0638 153.949 64.5187 153.949Z" fill="black"/>
<path d="M69.0526 141.97C68.9814 142.042 68.9382 142.137 68.9306 142.238C68.923 142.339 68.9515 142.439 69.0111 142.52C69.7495 143.492 70.1492 144.679 70.1492 145.898C70.1492 147.118 69.7495 148.304 69.0111 149.276C68.9503 149.357 68.9211 149.458 68.9287 149.559C68.9363 149.66 68.9803 149.755 69.0526 149.826C69.0945 149.868 69.1449 149.901 69.2004 149.922C69.256 149.943 69.3154 149.953 69.3747 149.949C69.4341 149.946 69.4921 149.93 69.5448 149.903C69.5976 149.875 69.6439 149.837 69.6809 149.791C70.5303 148.671 70.99 147.305 70.99 145.901C70.99 144.497 70.5303 143.131 69.6809 142.012C69.6444 141.965 69.5984 141.926 69.5458 141.898C69.4933 141.87 69.4354 141.854 69.3761 141.85C69.3167 141.846 69.2572 141.855 69.2014 141.876C69.1457 141.896 69.0949 141.929 69.0526 141.97Z" fill="white"/>
<path d="M60.5836 141.379C60.6557 141.45 60.7512 141.493 60.8525 141.499C60.9538 141.506 61.0541 141.476 61.1348 141.414C62.1098 140.678 63.2991 140.279 64.5219 140.279C65.7447 140.279 66.9341 140.678 67.9091 141.414C67.9889 141.475 68.0881 141.505 68.1884 141.499C68.2887 141.492 68.3832 141.45 68.4543 141.379C68.4965 141.337 68.5293 141.287 68.5505 141.231C68.5718 141.176 68.5811 141.117 68.5777 141.057C68.5743 140.998 68.5584 140.94 68.531 140.888C68.5037 140.835 68.4654 140.789 68.4188 140.752C67.2972 139.904 65.9288 139.445 64.5219 139.445C63.115 139.445 61.7466 139.904 60.6251 140.752C60.5781 140.788 60.5393 140.834 60.5114 140.887C60.4835 140.939 60.467 140.997 60.4631 141.056C60.4592 141.115 60.4679 141.175 60.4886 141.23C60.5094 141.286 60.5418 141.337 60.5836 141.379Z" fill="white"/>
<path d="M68.4543 150.418C68.3832 150.347 68.2887 150.304 68.1884 150.298C68.0881 150.291 67.9889 150.321 67.9091 150.382C66.9341 151.119 65.7447 151.517 64.5219 151.517C63.2991 151.517 62.1098 151.119 61.1348 150.382C61.0541 150.321 60.9538 150.29 60.8525 150.297C60.7512 150.303 60.6557 150.346 60.5836 150.418C60.5418 150.46 60.5094 150.51 60.4886 150.566C60.4679 150.622 60.4592 150.681 60.4631 150.74C60.467 150.8 60.4835 150.857 60.5114 150.91C60.5393 150.962 60.5781 151.008 60.6251 151.045C61.745 151.896 63.114 152.357 64.5219 152.357C65.9298 152.357 67.2988 151.896 68.4188 151.045C68.4654 151.008 68.5037 150.962 68.531 150.909C68.5584 150.856 68.5743 150.798 68.5777 150.739C68.5811 150.68 68.5718 150.621 68.5505 150.565C68.5293 150.51 68.4965 150.459 68.4543 150.418Z" fill="white"/>
<path d="M59.9906 149.826C60.0632 149.755 60.1069 149.659 60.1135 149.558C60.12 149.456 60.089 149.356 60.0262 149.276C59.2915 148.302 58.8942 147.117 58.8942 145.898C58.8942 144.679 59.2915 143.494 60.0262 142.52C60.089 142.44 60.12 142.34 60.1135 142.239C60.1069 142.137 60.0632 142.042 59.9906 141.97C59.9483 141.929 59.8976 141.896 59.8418 141.876C59.7861 141.855 59.7266 141.846 59.6672 141.85C59.6078 141.854 59.55 141.87 59.4974 141.898C59.4449 141.926 59.3989 141.965 59.3624 142.012C58.5129 143.131 58.0532 144.497 58.0532 145.901C58.0532 147.305 58.5129 148.671 59.3624 149.791C59.3993 149.837 59.4457 149.875 59.4984 149.903C59.5512 149.93 59.6092 149.946 59.6685 149.949C59.7279 149.953 59.7873 149.943 59.8428 149.922C59.8983 149.901 59.9487 149.868 59.9906 149.826Z" fill="white"/>
<path d="M58.3076 133.825H70.7538C70.9893 133.825 71.2224 133.776 71.4377 133.681C71.653 133.586 71.8457 133.446 72.0034 133.271C72.1611 133.097 72.2801 132.891 72.3528 132.667C72.4255 132.443 72.4501 132.207 72.4251 131.973C71.9154 127.17 70.2382 114.493 66.5576 111.689C65.7516 111.098 63.3216 111.098 62.5215 111.689C58.841 114.493 57.1874 127.17 56.654 131.973C56.6292 132.206 56.6533 132.44 56.7249 132.663C56.7965 132.885 56.914 133.09 57.0697 133.265C57.2255 133.439 57.4161 133.579 57.6293 133.675C57.8425 133.772 58.0735 133.823 58.3076 133.825Z" fill="#149EF2"/>
<path d="M58.8053 130.216C58.6952 130.216 58.5897 130.173 58.5119 130.095C58.4341 130.017 58.3904 129.912 58.3904 129.802C58.4075 128.726 58.4887 127.651 58.6334 126.584C58.64 126.53 58.6573 126.477 58.6845 126.429C58.7117 126.381 58.7482 126.34 58.7917 126.306C58.8353 126.272 58.8852 126.248 58.9384 126.234C58.9916 126.219 59.047 126.216 59.1016 126.223C59.1565 126.23 59.2095 126.247 59.2577 126.274C59.3058 126.302 59.3482 126.338 59.3823 126.381C59.4164 126.425 59.4417 126.474 59.4565 126.527C59.4714 126.581 59.4757 126.636 59.4691 126.691C59.3248 127.722 59.2437 128.761 59.2261 129.802C59.2261 129.857 59.2151 129.912 59.1939 129.962C59.1727 130.013 59.1416 130.059 59.1025 130.097C59.0633 130.136 59.0169 130.166 58.9658 130.187C58.9148 130.207 58.8602 130.217 58.8053 130.216ZM59.2675 125.407H59.2024C59.1476 125.399 59.0949 125.38 59.0475 125.352C59.0001 125.323 58.9589 125.286 58.9263 125.241C58.8938 125.196 58.8705 125.146 58.8578 125.092C58.8451 125.038 58.8434 124.982 58.8527 124.928C59.4098 121.462 60.8085 115.132 62.5213 113.423C62.602 113.355 62.7049 113.321 62.8098 113.325C62.9148 113.33 63.0141 113.374 63.0884 113.448C63.1627 113.522 63.2065 113.621 63.2112 113.726C63.216 113.831 63.1813 113.934 63.114 114.014C61.8161 115.31 60.4055 120.521 59.6824 125.058C59.6646 125.155 59.6134 125.243 59.5377 125.307C59.462 125.371 59.3665 125.406 59.2675 125.407Z" fill="white"/>
<path d="M107.114 121.751H106.611V157.918H107.114V121.751Z" fill="white"/>
<path d="M109.13 121.751H108.626V157.918H109.13V121.751Z" fill="white"/>
<path d="M111.145 121.751H110.641V157.918H111.145V121.751Z" fill="white"/>
<path d="M113.16 121.751H112.656V157.918H113.16V121.751Z" fill="white"/>
<path d="M115.181 121.751H114.677V157.918H115.181V121.751Z" fill="white"/>
<path d="M117.196 121.751H116.692V157.918H117.196V121.751Z" fill="white"/>
<path d="M119.211 121.751H118.707V157.918H119.211V121.751Z" fill="white"/>
<path d="M121.226 121.751H120.722V157.918H121.226V121.751Z" fill="white"/>
<path d="M123.241 121.751H122.737V157.918H123.241V121.751Z" fill="white"/>
<path d="M22.4327 121.751H21.929V157.918H22.4327V121.751Z" fill="white"/>
<path d="M20.412 121.751H19.9082V157.918H20.412V121.751Z" fill="white"/>
<path d="M18.3966 121.751H17.8928V157.918H18.3966V121.751Z" fill="white"/>
<path d="M16.3815 121.751H15.8777V157.918H16.3815V121.751Z" fill="white"/>
<path d="M14.3666 121.751H13.8628V157.918H14.3666V121.751Z" fill="white"/>
<path d="M12.3514 121.751H11.8477V157.918H12.3514V121.751Z" fill="white"/>
<path d="M10.3363 121.751H9.83252V157.918H10.3363V121.751Z" fill="white"/>
<path d="M8.3153 121.751H7.81152V157.918H8.3153V121.751Z" fill="white"/>
<path d="M6.30016 121.751H5.79639V157.918H6.30016V121.751Z" fill="white"/>
<path d="M116.941 65.401C116.941 61.3785 104.845 58.196 104.845 61.3785V105.65C104.845 108.832 116.941 105.65 116.941 101.627V65.401Z" fill="black"/>
<path d="M108.881 109.672H112.911V57.3501H108.881V109.672Z" fill="#149EF2"/>
<path d="M12.0967 65.401C12.0967 61.3785 24.1932 58.196 24.1932 61.3785V105.65C24.1932 108.832 12.0967 105.65 12.0967 101.627V65.401Z" fill="black"/>
<path d="M20.1628 57.356H16.1326V109.678H20.1628V57.356Z" fill="#149EF2"/>
<path d="M64.5188 73.4519C44.1248 73.4519 24.2168 77.4744 24.2168 77.4744V95.5875H26.2378L28.2529 101.627H52.4223C56.4584 85.5253 56.4584 85.5253 64.5188 85.5253C72.5793 85.5253 72.5852 85.5253 76.6154 101.627H100.814L102.829 95.5875H104.845V77.4922C104.845 77.4922 84.9188 73.4519 64.5188 73.4519Z" fill="#000672"/>
<path d="M44.5873 85.2946V93.8069H36.0646V85.2946H44.5873ZM47.1121 82.7805H33.5398V96.321H47.1121V82.7805Z" fill="#149EF2"/>
<path d="M88.7179 86.7735L92.5466 93.8069H84.8892L88.7179 86.7735ZM88.7179 81.5028L80.6516 96.321H96.7784L88.7179 81.5028Z" fill="#149EF2"/>
<path d="M96.7783 71.4407C98.7993 71.4407 92.7481 67.4182 90.733 67.4182C86.5843 67.4182 74.6003 69.4294 74.6003 71.6359C74.6003 73.4519 76.6154 77.4744 78.6365 77.4744C80.6575 77.4744 86.6969 71.4407 96.7783 71.4407Z" fill="#E05AB7"/>
<path d="M32.2593 71.4407C30.2442 71.4407 36.2954 67.4182 38.3105 67.4182C42.4592 67.4182 54.4372 69.4294 54.4372 71.6359C54.4372 73.4519 52.4221 77.4744 50.407 77.4744C48.3919 77.4744 42.3407 71.4407 32.2593 71.4407Z" fill="#E05AB7"/>
<path d="M96.7782 43.8925H24.2227V49.3347H96.7782V43.8925Z" fill="#FF64C4"/>
<path d="M96.7782 43.2832H24.2227V43.8925H96.7782V43.2832Z" fill="#FF64C4"/>
<path d="M96.7782 42.6739H24.2227V43.2832H96.7782V42.6739Z" fill="#FE63C4"/>
<path d="M96.7782 42.0646H24.2227V42.6739H96.7782V42.0646Z" fill="#FE62C3"/>
<path d="M96.7782 41.4613H24.2227V42.0706H96.7782V41.4613Z" fill="#FD61C3"/>
<path d="M96.7782 40.852H24.2227V41.4613H96.7782V40.852Z" fill="#FD60C3"/>
<path d="M96.7782 40.2427H24.2227V40.852H96.7782V40.2427Z" fill="#FC5FC3"/>
<path d="M96.7782 39.6334H24.2227V40.2427H96.7782V39.6334Z" fill="#FC5EC2"/>
<path d="M96.7782 39.0241H24.2227V39.6334H96.7782V39.0241Z" fill="#FB5DC2"/>
<path d="M96.7782 38.4207H24.2227V39.03H96.7782V38.4207Z" fill="#FA5CC2"/>
<path d="M96.7782 37.8114H24.2227V38.4207H96.7782V37.8114Z" fill="#FA5BC1"/>
<path d="M96.7782 37.2021H24.2227V37.8114H96.7782V37.2021Z" fill="#F95AC1"/>
<path d="M96.7782 36.5929H24.2227V37.2022H96.7782V36.5929Z" fill="#F959C1"/>
<path d="M96.7782 35.9895H24.2227V36.5988H96.7782V35.9895Z" fill="#F858C0"/>
<path d="M96.7782 35.3802H24.2227V35.9895H96.7782V35.3802Z" fill="#F857C0"/>
<path d="M96.7782 34.7709H24.2227V35.3802H96.7782V34.7709Z" fill="#F756C0"/>
<path d="M96.7782 34.1616H24.2227V34.7709H96.7782V34.1616Z" fill="#F655C0"/>
<path d="M96.7782 33.5523H24.2227V34.1616H96.7782V33.5523Z" fill="#F654BF"/>
<path d="M96.7782 32.949H24.2227V33.5582H96.7782V32.949Z" fill="#F553BF"/>
<path d="M96.7782 32.3397H24.2227V32.949H96.7782V32.3397Z" fill="#F552BF"/>
<path d="M96.7782 31.7304H24.2227V32.3397H96.7782V31.7304Z" fill="#F451BE"/>
<path d="M96.7782 31.1211H24.2227V31.7304H96.7782V31.1211Z" fill="#F450BE"/>
<path d="M96.7782 30.5118H24.2227V31.1211H96.7782V30.5118Z" fill="#F34FBE"/>
<path d="M96.7782 29.9084H24.2227V30.5177H96.7782V29.9084Z" fill="#F34EBE"/>
<path d="M96.7782 29.2991H24.2227V29.9084H96.7782V29.2991Z" fill="#F24CBD"/>
<path d="M96.7782 28.6898H24.2227V29.2991H96.7782V28.6898Z" fill="#F14BBD"/>
<path d="M96.7782 28.0806H24.2227V28.6899H96.7782V28.0806Z" fill="#F14ABD"/>
<path d="M96.7782 27.4772H24.2227V28.0865H96.7782V27.4772Z" fill="#F049BC"/>
<path d="M96.7782 26.8679H24.2227V27.4772H96.7782V26.8679Z" fill="#F048BC"/>
<path d="M96.7782 26.2586H24.2227V26.8679H96.7782V26.2586Z" fill="#EF47BC"/>
<path d="M96.7782 25.6493H24.2227V26.2586H96.7782V25.6493Z" fill="#EF46BB"/>
<path d="M96.7782 25.04H24.2227V25.6493H96.7782V25.04Z" fill="#EE45BB"/>
<path d="M96.7782 24.4367H24.2227V25.0459H96.7782V24.4367Z" fill="#ED44BB"/>
<path d="M96.7782 23.8274H24.2227V24.4367H96.7782V23.8274Z" fill="#ED43BB"/>
<path d="M96.7782 23.2181H24.2227V23.8274H96.7782V23.2181Z" fill="#EC42BA"/>
<path d="M96.7782 22.6088H24.2227V23.2181H96.7782V22.6088Z" fill="#EC41BA"/>
<path d="M96.7782 22.0054H24.2227V22.6147H96.7782V22.0054Z" fill="#EB40BA"/>
<path d="M96.7782 21.3961H24.2227V22.0054H96.7782V21.3961Z" fill="#EB3FB9"/>
<path d="M96.7782 20.7868H24.2227V21.3961H96.7782V20.7868Z" fill="#EA3EB9"/>
<path d="M96.7782 20.1775H24.2227V20.7868H96.7782V20.1775Z" fill="#E93DB9"/>
<path d="M96.7782 19.5682H24.2227V20.1775H96.7782V19.5682Z" fill="#E93CB8"/>
<path d="M96.7782 18.9649H24.2227V19.5742H96.7782V18.9649Z" fill="#E83BB8"/>
<path d="M96.7782 18.3556H24.2227V18.9649H96.7782V18.3556Z" fill="#E83AB8"/>
<path d="M96.7782 17.7463H24.2227V18.3556H96.7782V17.7463Z" fill="#E739B8"/>
<path d="M96.7782 17.137H24.2227V17.7463H96.7782V17.137Z" fill="#E738B7"/>
<path d="M96.7782 16.5277H24.2227V17.137H96.7782V16.5277Z" fill="#E637B7"/>
<path d="M96.7782 15.0903H24.2227V16.5277H96.7782V15.0903Z" fill="#E637B7"/>
<path d="M88.7121 37.2021H64.519V37.2258H88.7121V37.2021Z" fill="#F95AC1"/>
<path d="M88.7121 36.5929H64.519V37.2022H88.7121V36.5929Z" fill="#F959C1"/>
<path d="M88.7121 35.9895H64.519V36.5988H88.7121V35.9895Z" fill="#F858C0"/>
<path d="M88.7121 35.3802H64.519V35.9895H88.7121V35.3802Z" fill="#F857C0"/>
<path d="M88.7121 34.7709H64.519V35.3802H88.7121V34.7709Z" fill="#F756C0"/>
<path d="M88.7121 34.1616H64.519V34.7709H88.7121V34.1616Z" fill="#F655C0"/>
<path d="M88.7121 33.5523H64.519V34.1616H88.7121V33.5523Z" fill="#F654BF"/>
<path d="M88.7121 32.949H64.519V33.5582H88.7121V32.949Z" fill="#F553BF"/>
<path d="M88.7121 32.3397H64.519V32.949H88.7121V32.3397Z" fill="#F552BF"/>
<path d="M88.7121 31.7304H64.519V32.3397H88.7121V31.7304Z" fill="#F451BE"/>
<path d="M88.7121 31.1211H64.519V31.7304H88.7121V31.1211Z" fill="#F450BE"/>
<path d="M88.7121 30.5118H64.519V31.1211H88.7121V30.5118Z" fill="#F34FBE"/>
<path d="M88.7121 29.9084H64.519V30.5177H88.7121V29.9084Z" fill="#F34EBE"/>
<path d="M88.7121 29.2991H64.519V29.9084H88.7121V29.2991Z" fill="#F24CBD"/>
<path d="M88.7121 28.6898H64.519V29.2991H88.7121V28.6898Z" fill="#F14BBD"/>
<path d="M88.7121 28.0806H64.519V28.6899H88.7121V28.0806Z" fill="#F14ABD"/>
<path d="M88.7121 27.4772H64.519V28.0865H88.7121V27.4772Z" fill="#F049BC"/>
<path d="M88.7121 26.8679H64.519V27.4772H88.7121V26.8679Z" fill="#F048BC"/>
<path d="M88.7121 26.2586H64.519V26.8679H88.7121V26.2586Z" fill="#EF47BC"/>
<path d="M88.7121 25.6493H64.519V26.2586H88.7121V25.6493Z" fill="#EF46BB"/>
<path d="M88.7121 25.04H64.519V25.6493H88.7121V25.04Z" fill="#EE45BB"/>
<path d="M88.7121 24.4367H64.519V25.0459H88.7121V24.4367Z" fill="#ED44BB"/>
<path d="M88.7121 23.8274H64.519V24.4367H88.7121V23.8274Z" fill="#ED43BB"/>
<path d="M88.7121 23.2181H64.519V23.8274H88.7121V23.2181Z" fill="#EC42BA"/>
<path d="M88.7121 22.6088H64.519V23.2181H88.7121V22.6088Z" fill="#EC41BA"/>
<path d="M88.7121 22.0054H64.519V22.6147H88.7121V22.0054Z" fill="#EB40BA"/>
<path d="M88.7121 21.3961H64.519V22.0054H88.7121V21.3961Z" fill="#EB3FB9"/>
<path d="M88.7121 21.1299H64.519V21.3961H88.7121V21.1299Z" fill="#EA3EB9"/>
<path d="M66.6877 37.2021H42.4946V37.2258H66.6877V37.2021Z" fill="#F95AC1"/>
<path d="M66.6877 36.5929H42.4946V37.2022H66.6877V36.5929Z" fill="#F959C1"/>
<path d="M66.6877 35.9895H42.4946V36.5988H66.6877V35.9895Z" fill="#F858C0"/>
<path d="M66.6877 35.3802H42.4946V35.9895H66.6877V35.3802Z" fill="#F857C0"/>
<path d="M66.6877 34.7709H42.4946V35.3802H66.6877V34.7709Z" fill="#F756C0"/>
<path d="M66.6877 34.1616H42.4946V34.7709H66.6877V34.1616Z" fill="#F655C0"/>
<path d="M66.6877 33.5523H42.4946V34.1616H66.6877V33.5523Z" fill="#F654BF"/>
<path d="M66.6877 32.949H42.4946V33.5582H66.6877V32.949Z" fill="#F553BF"/>
<path d="M66.6877 32.3397H42.4946V32.949H66.6877V32.3397Z" fill="#F552BF"/>
<path d="M66.6877 31.7304H42.4946V32.3397H66.6877V31.7304Z" fill="#F451BE"/>
<path d="M66.6877 31.1211H42.4946V31.7304H66.6877V31.1211Z" fill="#F450BE"/>
<path d="M66.6877 30.5118H42.4946V31.1211H66.6877V30.5118Z" fill="#F34FBE"/>
<path d="M66.6877 29.9084H42.4946V30.5177H66.6877V29.9084Z" fill="#F34EBE"/>
<path d="M66.6877 29.2991H42.4946V29.9084H66.6877V29.2991Z" fill="#F24CBD"/>
<path d="M66.6877 28.6898H42.4946V29.2991H66.6877V28.6898Z" fill="#F14BBD"/>
<path d="M66.6877 28.0806H42.4946V28.6899H66.6877V28.0806Z" fill="#F14ABD"/>
<path d="M66.6877 27.4772H42.4946V28.0865H66.6877V27.4772Z" fill="#F049BC"/>
<path d="M66.6877 26.8679H42.4946V27.4772H66.6877V26.8679Z" fill="#F048BC"/>
<path d="M66.6877 26.2586H42.4946V26.8679H66.6877V26.2586Z" fill="#EF47BC"/>
<path d="M66.6877 25.6493H42.4946V26.2586H66.6877V25.6493Z" fill="#EF46BB"/>
<path d="M66.6877 25.04H42.4946V25.6493H66.6877V25.04Z" fill="#EE45BB"/>
<path d="M66.6877 24.4367H42.4946V25.0459H66.6877V24.4367Z" fill="#ED44BB"/>
<path d="M66.6877 23.8274H42.4946V24.4367H66.6877V23.8274Z" fill="#ED43BB"/>
<path d="M66.6877 23.2181H42.4946V23.8274H66.6877V23.2181Z" fill="#EC42BA"/>
<path d="M66.6877 22.6088H42.4946V23.2181H66.6877V22.6088Z" fill="#EC41BA"/>
<path d="M66.6877 22.0054H42.4946V22.6147H66.6877V22.0054Z" fill="#EB40BA"/>
<path d="M66.6877 21.3961H42.4946V22.0054H66.6877V21.3961Z" fill="#EB3FB9"/>
<path d="M66.6877 21.1299H42.4946V21.3961H66.6877V21.1299Z" fill="#EA3EB9"/>
<path d="M52.4224 40.852H30.2444V41.2542H52.4224V40.852Z" fill="#FD60C3"/>
<path d="M52.4224 40.2427H30.2444V40.852H52.4224V40.2427Z" fill="#FC5FC3"/>
<path d="M52.4224 39.6334H30.2444V40.2427H52.4224V39.6334Z" fill="#FC5EC2"/>
<path d="M52.4224 39.0241H30.2444V39.6334H52.4224V39.0241Z" fill="#FB5DC2"/>
<path d="M52.4224 38.4207H30.2444V39.03H52.4224V38.4207Z" fill="#FA5CC2"/>
<path d="M52.4224 37.8114H30.2444V38.4207H52.4224V37.8114Z" fill="#FA5BC1"/>
<path d="M52.4224 37.2022H30.2444V37.8114H52.4224V37.2022Z" fill="#F95AC1"/>
<path d="M52.4224 36.5929H30.2444V37.2022H52.4224V36.5929Z" fill="#F959C1"/>
<path d="M52.4224 35.9895H30.2444V36.5988H52.4224V35.9895Z" fill="#F858C0"/>
<path d="M52.4224 35.3802H30.2444V35.9895H52.4224V35.3802Z" fill="#F857C0"/>
<path d="M52.4224 34.7709H30.2444V35.3802H52.4224V34.7709Z" fill="#F756C0"/>
<path d="M52.4224 34.1616H30.2444V34.7709H52.4224V34.1616Z" fill="#F655C0"/>
<path d="M52.4224 33.5523H30.2444V34.1616H52.4224V33.5523Z" fill="#F654BF"/>
<path d="M52.4224 32.949H30.2444V33.5582H52.4224V32.949Z" fill="#F553BF"/>
<path d="M52.4224 32.3397H30.2444V32.949H52.4224V32.3397Z" fill="#F552BF"/>
<path d="M52.4224 31.7304H30.2444V32.3397H52.4224V31.7304Z" fill="#F451BE"/>
<path d="M52.4224 31.1211H30.2444V31.7304H52.4224V31.1211Z" fill="#F450BE"/>
<path d="M52.4224 30.5118H30.2444V31.1211H52.4224V30.5118Z" fill="#F34FBE"/>
<path d="M52.4224 29.9084H30.2444V30.5177H52.4224V29.9084Z" fill="#F34EBE"/>
<path d="M52.4224 29.2991H30.2444V29.9084H52.4224V29.2991Z" fill="#F24CBD"/>
<path d="M52.4224 28.6898H30.2444V29.2991H52.4224V28.6898Z" fill="#F14BBD"/>
<path d="M52.4224 28.0806H30.2444V28.6898H52.4224V28.0806Z" fill="#F14ABD"/>
<path d="M52.4224 27.4772H30.2444V28.0865H52.4224V27.4772Z" fill="#F049BC"/>
<path d="M52.4224 26.8679H30.2444V27.4772H52.4224V26.8679Z" fill="#F048BC"/>
<path d="M52.4224 26.2586H30.2444V26.8679H52.4224V26.2586Z" fill="#EF47BC"/>
<path d="M52.4224 25.6493H30.2444V26.2586H52.4224V25.6493Z" fill="#EF46BB"/>
<path d="M52.4224 25.1524H30.2444V25.6493H52.4224V25.1524Z" fill="#EE45BB"/>
<path d="M42.3527 43.8925H26.2141V49.311H42.3527V43.8925Z" fill="#FF64C4"/>
<path d="M42.3527 43.2832H26.2141V43.8925H42.3527V43.2832Z" fill="#FF64C4"/>
<path d="M42.3527 42.6739H26.2141V43.2832H42.3527V42.6739Z" fill="#FE63C4"/>
<path d="M42.3527 42.0646H26.2141V42.6739H42.3527V42.0646Z" fill="#FE62C3"/>
<path d="M42.3527 41.4613H26.2141V42.0706H42.3527V41.4613Z" fill="#FD61C3"/>
<path d="M42.3527 40.852H26.2141V41.4613H42.3527V40.852Z" fill="#FD60C3"/>
<path d="M42.3527 40.2427H26.2141V40.852H42.3527V40.2427Z" fill="#FC5FC3"/>
<path d="M42.3527 39.6334H26.2141V40.2427H42.3527V39.6334Z" fill="#FC5EC2"/>
<path d="M42.3527 39.243H26.2141V39.6334H42.3527V39.243Z" fill="#FB5DC2"/>
<path d="M100.814 43.8925H88.7178V49.3051H100.814V43.8925Z" fill="#FF64C4"/>
<path d="M100.814 43.2832H88.7178V43.8925H100.814V43.2832Z" fill="#FF64C4"/>
<path d="M100.814 42.6739H88.7178V43.2832H100.814V42.6739Z" fill="#FE63C4"/>
<path d="M100.814 42.0646H88.7178V42.6739H100.814V42.0646Z" fill="#FE62C3"/>
<path d="M100.814 41.4613H88.7178V42.0706H100.814V41.4613Z" fill="#FD61C3"/>
<path d="M100.814 40.852H88.7178V41.4613H100.814V40.852Z" fill="#FD60C3"/>
<path d="M100.814 40.2427H88.7178V40.852H100.814V40.2427Z" fill="#FC5FC3"/>
<path d="M100.814 39.6334H88.7178V40.2427H100.814V39.6334Z" fill="#FC5EC2"/>
<path d="M100.814 39.0241H88.7178V39.6334H100.814V39.0241Z" fill="#FB5DC2"/>
<path d="M100.814 38.4207H88.7178V39.03H100.814V38.4207Z" fill="#FA5CC2"/>
<path d="M100.814 37.8114H88.7178V38.4207H100.814V37.8114Z" fill="#FA5BC1"/>
<path d="M100.814 37.2021H88.7178V37.8114H100.814V37.2021Z" fill="#F95AC1"/>
<path d="M100.814 36.5929H88.7178V37.2022H100.814V36.5929Z" fill="#F959C1"/>
<path d="M100.814 35.9895H88.7178V36.5988H100.814V35.9895Z" fill="#F858C0"/>
<path d="M100.814 35.3802H88.7178V35.9895H100.814V35.3802Z" fill="#F857C0"/>
<path d="M100.814 34.7709H88.7178V35.3802H100.814V34.7709Z" fill="#F756C0"/>
<path d="M100.814 34.1616H88.7178V34.7709H100.814V34.1616Z" fill="#F655C0"/>
<path d="M100.814 33.5523H88.7178V34.1616H100.814V33.5523Z" fill="#F654BF"/>
<path d="M100.814 32.949H88.7178V33.5582H100.814V32.949Z" fill="#F553BF"/>
<path d="M100.814 32.3397H88.7178V32.949H100.814V32.3397Z" fill="#F552BF"/>
<path d="M100.814 31.7304H88.7178V32.3397H100.814V31.7304Z" fill="#F451BE"/>
<path d="M100.814 31.1211H88.7178V31.7304H100.814V31.1211Z" fill="#F450BE"/>
<path d="M100.814 30.5118H88.7178V31.1211H100.814V30.5118Z" fill="#F34FBE"/>
<path d="M100.814 29.9084H88.7178V30.5177H100.814V29.9084Z" fill="#F34EBE"/>
<path d="M100.814 29.2991H88.7178V29.9084H100.814V29.2991Z" fill="#F24CBD"/>
<path d="M100.814 29.1808H88.7178V29.2991H100.814V29.1808Z" fill="#F14BBD"/>
</svg>
